PathFileType	4	(X/Y/Z)	D:\TRACE\v60_Jaco2_6-2-23\JustBodyDRS_Motion1_8-platform.trc
DataRate	CameraRate	NumFrames	NumMarkers	Units	OrigDataRate	OrigDataStartFrame	OrigNumFrames
100.00	100.00	      42	5	mm	100.00	2518	      6712
Frame#	Time	Left_Front			Right_Front			Left_Aft			Right_Aft			Post			
		X1	Y1	Z1	X2	Y2	Z2	X3	Y3	Z3	X4	Y4	Z4	X5	Y5	Z5	

2518	25.170	-812.91504	31.22127	-633.05725	757.12427	31.92233	-638.39337	-720.99280	-7.75595	501.34137	721.39050	-9.00757	511.66321	-26.08923	1340.32007	-911.88031	
2519	25.180	-811.85364	31.31458	-633.10309	758.04297	32.24883	-638.33472	-720.04633	-7.83394	501.40396	722.65131	-9.25548	511.55011	-25.93686	1340.72021	-910.97705	
2520	25.190	-810.90704	31.71486	-633.13739	758.91388	32.57907	-638.32532	-719.13684	-8.08687	501.34366	723.52228	-9.42284	511.50323	-24.52983	1340.77527	-909.76532	
2521	25.200	-810.22565	31.88763	-633.02917	759.91638	32.80059	-638.19873	-718.43976	-8.10929	501.44391	724.29236	-9.65751	511.58475	-23.67953	1341.14905	-909.57703	
2522	25.210	-809.27979	32.21534	-632.88763	760.66132	33.09510	-638.12054	-717.54736	-8.25845	501.53741	725.16309	-9.93390	511.87415	-22.76397	1341.61792	-909.37390	
2523	25.220	-808.06726	32.48473	-632.78088	761.70490	33.30999	-638.08923	-716.42212	-8.45509	501.65152	725.74023	-10.07022	511.91101	-21.69988	1341.99353	-909.15472	
2524	25.230	-807.11804	32.76380	-632.73401	762.61993	33.53798	-638.19440	-715.41132	-8.71474	501.73328	727.48413	-10.10027	511.85742	-20.57608	1342.16760	-909.23352	
2525	25.240	-806.37091	32.95699	-632.75262	763.70135	33.75328	-638.03638	-714.39569	-8.88020	501.71384	728.21973	-10.25026	511.87073	-19.82371	1342.68384	-909.23529	
2526	25.250	-805.44037	33.27597	-632.72137	764.62494	33.82166	-637.87341	-713.45398	-9.03710	501.41907	728.51514	-10.46723	511.97519	-19.00269	1343.07336	-908.82623	
2527	25.260	-804.32251	33.43789	-632.88715	765.53638	33.98172	-637.88129	-712.80383	-9.09121	501.65256	730.50348	-10.63925	511.95880	-17.95762	1343.30615	-908.46173	
2528	25.270	-803.40509	33.45282	-632.65430	766.49097	34.17298	-637.84918	-711.72906	-9.28316	501.70877	731.41473	-10.05032	513.29120	-16.88779	1343.46631	-907.85858	
2529	25.280	-802.47559	33.95646	-632.55487	767.40454	34.41787	-637.90271	-710.72607	-9.39980	501.74039	732.24200	-10.32466	513.64844	-15.98713	1343.69153	-907.15588	
2530	25.290	-801.61859	34.25191	-632.56537	768.47253	34.74604	-637.54950	-709.71405	-9.63986	501.81824	733.05804	-10.99551	512.39648	-15.40079	1344.18262	-906.59149	
2531	25.300	-800.55768	34.16176	-632.55463	769.24158	34.95870	-637.68805	-708.75293	-9.78139	502.00989	733.64246	-11.03586	512.51385	-13.63572	1344.41296	-905.82202	
2532	25.310	-799.61133	34.07830	-632.40662	770.22217	35.06342	-637.75891	-707.80518	-9.92381	502.07413	735.31177	-11.19514	512.35291	-12.98327	1344.65344	-904.83209	
2533	25.320	-798.59857	34.36391	-632.37543	771.16547	35.19419	-637.70563	-707.07318	-10.03295	501.96509	735.96808	-11.42403	512.27545	-12.08029	1344.66260	-904.19049	
2534	25.330	-797.81763	34.59878	-632.35870	772.04254	35.38916	-637.55859	-705.89130	-10.03488	501.82367	736.50323	-11.50065	512.48834	-11.26759	1345.01697	-904.01904	
2535	25.340	-796.61969	34.75771	-632.40350	773.26007	35.78840	-637.54181	-704.92877	-10.25384	501.93500	738.36847	-11.41185	512.28949	-10.02168	1345.38513	-903.90503	
2536	25.350	-795.66705	35.19271	-632.12067	774.25189	36.01189	-637.39636	-703.80017	-10.46908	502.05051	739.30530	-11.41366	512.58020	-9.05540	1345.74426	-903.49829	
2537	25.360	-794.73926	35.17780	-632.22992	774.97314	36.04258	-637.57355	-702.81787	-10.75548	502.07080	740.10266	-11.62663	512.64850	-8.29124	1346.02673	-903.43329	
2538	25.370	-793.92682	35.26811	-632.37024	776.03387	36.16703	-637.52765	-701.97711	-11.04516	502.29532	740.95807	-11.93438	512.82501	-7.30103	1346.10925	-903.29950	
2539	25.380	-792.73322	35.53010	-632.10071	777.02374	36.25444	-637.28345	-700.86835	-11.11886	502.45306	742.09949	-11.84509	512.67377	-6.48598	1346.31958	-902.94910	
2540	25.390	-791.78552	35.76492	-631.79779	777.98407	36.83904	-637.25098	-699.85577	-11.37488	502.42239	743.30701	-12.00834	512.71924	-5.63417	1346.78088	-902.49481	
2541	25.400	-790.83026	36.00165	-631.91919	778.88831	36.95653	-637.43988	-698.89978	-11.32374	502.40634	744.08649	-12.04366	513.11981	-4.40523	1347.03638	-901.94110	
2542	25.410	-789.91968	36.21688	-632.12573	780.01807	37.18022	-637.32233	-698.01300	-11.24889	502.32608	744.75470	-12.14107	513.39423	-3.45122	1347.19714	-901.51666	
2543	25.420	-788.74933	36.01419	-632.05560	781.02460	36.84124	-637.18097	-696.88678	-11.43011	502.38474	746.19037	-12.46091	513.06506	-2.63964	1347.21594	-901.02795	
2544	25.430	-787.95239	35.87587	-631.73816	781.83392	37.02633	-637.22626	-696.21259	-11.68854	502.38235	745.56152	-13.36124	511.38300	-1.46911	1347.36023	-900.34711	
2545	25.440	-787.18140	36.28526	-631.67664	782.93011	37.58350	-637.25104	-695.05933	-11.93050	502.71350	747.22644	-13.05793	511.62650	-0.26828	1347.72937	-900.17517	
2546	25.450	-786.14130	36.96491	-631.99274	783.78302	37.62723	-637.01123	-694.02112	-11.89404	502.79221	748.00018	-13.46387	511.46057	0.28480	1348.20129	-899.68781	
2547	25.460	-785.16986	37.09023	-631.84619	784.72009	37.92517	-636.93219	-693.22028	-11.97867	502.90628	748.71600	-13.61053	511.48495	1.17300	1348.37390	-899.37091	
2548	25.470	-784.23651	37.09067	-631.56934	785.57178	38.07285	-637.03088	-692.21539	-12.13611	502.84723	749.91583	-13.60444	511.78500	2.15036	1348.52197	-899.23993	
2549	25.480	-783.16302	37.26831	-631.69110	786.73364	38.34052	-637.11694	-691.05383	-12.17476	502.89038	750.52490	-13.78451	511.59332	3.48550	1348.46741	-898.86377	
2550	25.490	-782.27527	37.33015	-631.90576	787.54999	38.17887	-636.99933	-690.25775	-12.38945	502.72626	751.82605	-13.76544	511.62262	4.49996	1348.66394	-898.29791	
2551	25.500	-781.49158	37.33018	-631.77460	788.60736	38.35923	-636.93134	-689.15936	-12.58171	502.62595	752.75946	-13.82218	511.71295	5.08050	1349.00085	-898.36298	
2552	25.510	-780.42719	37.44316	-631.48767	789.56567	38.61866	-636.78406	-688.41815	-12.45842	502.73938	753.29523	-14.25888	511.68912	5.97850	1349.13147	-898.19965	
2553	25.520	-779.33105	37.71403	-631.59625	790.37378	38.39942	-636.89026	-687.54736	-12.48122	502.91644	754.72668	-13.90832	511.73956	7.08185	1349.23694	-898.09412	
2554	25.530	-778.56116	37.58069	-631.72144	791.35913	38.64512	-636.89899	-686.49756	-12.76394	502.95468	755.43732	-14.01077	511.67282	7.76333	1349.42456	-898.03284	
2555	25.540	-777.76917	37.52701	-631.69464	792.11194	38.66632	-636.98279	-685.53583	-12.86117	502.90063	756.10974	-14.45462	511.72800	8.75635	1349.50610	-897.84137	
2556	25.550	-776.73328	37.85628	-631.60962	793.13403	38.88339	-636.88068	-684.66705	-13.03816	503.17715	757.50793	-14.19938	511.79987	9.73795	1349.72778	-897.61621	
2557	25.560	-775.75824	37.95770	-631.43689	793.99609	39.07454	-636.77905	-683.65741	-13.16634	503.14481	757.99310	-14.18740	511.78537	10.89362	1349.86316	-897.50952	
2558	25.570	-774.86499	37.94868	-631.54547	795.03223	39.08763	-636.74664	-682.66638	-13.27844	503.20432	758.98438	-14.66358	511.69342	11.48162	1350.01282	-897.46387	
2559	25.580	-774.09729	38.02035	-631.63470	795.98035	39.27737	-636.61499	-681.93976	-13.29283	503.00977	760.02588	-14.50749	511.78101	12.58729	1350.21985	-897.00555	
